mtllib ./pointing cone.All files.mtl
g pb-Cube-9478
v 0.7 0.4406778 -0.4424687
v -1 0 0
v 0.7 0.5593222 -0.4424687
v -1 1 0
v -1 0 0
v -1 0 -1
v -1 1 0
v -1 1 -1
v -1 0 -1
v 0.7 0.4406778 -0.5575313
v -1 1 -1
v 0.7 0.5593222 -0.5575313
v 0.7 0.4406778 -0.5575313
v 0.7 0.4406778 -0.4424687
v 0.7 0.5593222 -0.5575313
v 0.7 0.5593222 -0.4424687
v 0.7 0.5593222 -0.4424687
v -1 1 0
v 0.7 0.5593222 -0.5575313
v -1 1 -1
v 0.7 0.4406778 -0.5575313
v -1 0 -1
v 0.7 0.4406778 -0.4424687
v -1 0 0

vn 0.2518838 0 0.9677575
vn 0.2518838 0 0.9677575
vn 0.2518838 0 0.9677575
vn 0.2518837 0 0.9677574
vn -1 0 0
vn -1 0 0
vn -1 0 0
vn -1 0 0
vn 0.2518837 0 -0.9677574
vn 0.2518837 0 -0.9677575
vn 0.2518837 0 -0.9677575
vn 0.2518838 0 -0.9677575
vn 1 0 0
vn 1 0 0
vn 1 0 0
vn 1 0 0
vn 0.2509286 0.9680056 0
vn 0.2509286 0.9680056 0
vn 0.2509286 0.9680056 0
vn 0.2509286 0.9680056 0
vn 0.2509286 -0.9680056 0
vn 0.2509286 -0.9680056 0
vn 0.2509286 -0.9680056 0
vn 0.2509286 -0.9680056 0

vt 1.756639 0.4406778
vt 5.960464E-08 0
vt 1.756639 0.5593222
vt 5.960464E-08 1
vt 1 0
vt 0 0
vt 1 1
vt 0 1
vt 1.756639 0
vt 5.960464E-08 0.4406778
vt 1.756639 1
vt 5.960464E-08 0.5593222
vt 0.1150626 0
vt 2.980232E-08 0
vt 0.1150626 0.1186444
vt 2.980232E-08 0.1186444
vt 0 0.5575312
vt 1.756188 1
vt 0 0.4424687
vt 1.756188 0
vt 1.756188 0.4424687
vt 0 0
vt 1.756188 0.5575312
vt 0 1

g Default_Prototype
usemtl Default_Prototype
usemap Default_Prototype
f 2/2/2 1/1/1 3/3/3
f 4/4/4 2/2/2 3/3/3
f 6/6/6 5/5/5 7/7/7
f 8/8/8 6/6/6 7/7/7
f 10/10/10 9/9/9 11/11/11
f 12/12/12 10/10/10 11/11/11
f 14/14/14 13/13/13 15/15/15
f 16/16/16 14/14/14 15/15/15
f 18/18/18 17/17/17 19/19/19
f 20/20/20 18/18/18 19/19/19
f 22/22/22 21/21/21 23/23/23
f 24/24/24 22/22/22 23/23/23
