mtllib ./Dormer.All files.mtl
g pb-MergedObject-492832
v -2.900002 2 0.2499999
v 3.649998 2 0.25
v 3.649998 -0.7000008 1.5
v -2.900002 -0.7000008 1.5
v 3.649998 2 0.25
v 3.649998 -0.7000008 -1
v 3.649998 -0.7000008 1.5
v 3.649998 2 0.25
v -2.900002 2 0.2499999
v -2.900002 -0.7000008 -1
v 3.649998 -0.7000008 -1
v -2.752464 1.707247 0.2177426
v -2.752464 1.707247 0.3059142
v -2.699997 -0.7000008 1.4
v -2.752464 -0.6733875 -0.8403163
v -2.900002 -2.5 1.5
v 3.649998 -2.5 1.5
v 3.649998 -2.5 -1
v -2.900002 -2.5 -1
v -2.900002 -2.5 -1
v 3.649998 -2.5 -1
v 3.649998 -0.7000008 -1
v -2.900002 -0.7000008 -1
v -2.752464 -2.260475 1.363973
v -2.752464 -2.260475 -0.8403163
v -2.752464 -0.6733875 -0.8403163
v -2.699997 -0.7000008 1.4
v 3.649998 -2.5 -1
v 3.649998 -2.5 1.5
v 3.649998 -0.7000008 1.5
v 3.649998 -2.5 -1
v 3.649998 -0.7000008 1.5
v 3.649998 -0.7000008 -1
v 3.649998 -2.5 1.5
v -2.900002 -2.5 1.5
v -2.900002 -0.7000008 1.5
v 3.649998 -0.7000008 1.5
v -2.898727 -2.260475 1.363973
v -2.898727 -0.6733875 1.363973
v -2.900002 -0.7000008 1.5
v -2.900002 -2.5 1.5
v -2.898727 -0.6733875 -0.8403163
v -2.898727 -2.260475 -0.8403163
v -2.900002 -2.5 -1
v -2.900002 -0.7000008 -1
v -2.898727 -2.260475 -0.8403163
v -2.898727 -2.260475 1.363973
v -2.900002 -2.5 1.5
v -2.900002 -2.5 -1
v -2.898727 1.707247 0.2177426
v -2.898727 -0.6733875 -0.8403163
v -2.900002 -0.7000008 -1
v -2.900002 2 0.2499999
v -2.898727 -0.6733875 1.363973
v -2.898727 1.707247 0.3059142
v -2.900002 2 0.2499999
v -2.900002 -0.7000008 1.5
v -2.898727 1.707247 0.3059142
v -2.898727 1.707247 0.2177426
v -2.900002 2 0.2499999
v -2.752464 1.707247 0.2177426
v -2.752464 -0.6733875 -0.8403163
v -2.898727 -0.6733875 -0.8403163
v -2.898727 1.707247 0.2177426
v -2.699997 -0.7000008 1.4
v -2.752464 1.707247 0.3059142
v -2.898727 1.707247 0.3059142
v -2.898727 -0.6733875 1.363973
v -2.752464 1.707247 0.3059142
v -2.752464 1.707247 0.2177426
v -2.898727 1.707247 0.2177426
v -2.898727 1.707247 0.3059142
v -2.752464 -2.260475 1.363973
v -2.699997 -0.7000008 1.4
v -2.898727 -0.6733875 1.363973
v -2.898727 -2.260475 1.363973
v -2.752464 -0.6733875 -0.8403163
v -2.752464 -2.260475 -0.8403163
v -2.898727 -2.260475 -0.8403163
v -2.898727 -0.6733875 -0.8403163
v -2.752464 -2.260475 -0.8403163
v -2.752464 -2.260475 1.363973
v -2.898727 -2.260475 1.363973
v -2.898727 -2.260475 -0.8403163
v 11.85 -0.7000008 1.5
v 3.649998 -0.7000008 1.5
v 11.85 2 0.2499999
v 3.649998 2 0.25
v 3.649998 -0.7000008 1.5
v 3.649998 -0.7000008 -1
v 3.649998 2 0.25
v 3.649998 -0.7000008 -1
v 11.85 -0.7000008 -1
v 3.649998 2 0.25
v 11.85 2 0.2499999
v 11.70246 -0.6733875 -0.8403163
v 11.64999 -0.7000008 1.4
v 11.70246 1.707247 0.2177426
v 11.70246 1.707247 0.3059142
v 11.85 -2.5 -1
v 3.649998 -2.5 -1
v 11.85 -2.5 1.5
v 3.649998 -2.5 1.5
v 11.85 -0.7000008 -1
v 3.649998 -0.7000008 -1
v 11.85 -2.5 -1
v 3.649998 -2.5 -1
v 11.64999 -0.7000008 1.4
v 11.70246 -0.6733875 -0.8403163
v 11.70246 -2.260475 1.363973
v 11.70246 -2.260475 -0.8403163
v 3.649998 -0.7000008 -1
v 3.649998 -0.7000008 1.5
v 3.649998 -2.5 -1
v 3.649998 -0.7000008 1.5
v 3.649998 -2.5 1.5
v 3.649998 -2.5 -1
v 3.649998 -0.7000008 1.5
v 11.85 -0.7000008 1.5
v 3.649998 -2.5 1.5
v 11.85 -2.5 1.5
v 11.85 -2.5 1.5
v 11.85 -0.7000008 1.5
v 11.84872 -2.260475 1.363973
v 11.84872 -0.6733875 1.363973
v 11.85 -0.7000008 -1
v 11.85 -2.5 -1
v 11.84872 -0.6733875 -0.8403163
v 11.84872 -2.260475 -0.8403163
v 11.85 -2.5 -1
v 11.85 -2.5 1.5
v 11.84872 -2.260475 -0.8403163
v 11.84872 -2.260475 1.363973
v 11.85 2 0.2499999
v 11.85 -0.7000008 -1
v 11.84872 1.707247 0.2177426
v 11.84872 -0.6733875 -0.8403163
v 11.85 -0.7000008 1.5
v 11.85 2 0.2499999
v 11.84872 -0.6733875 1.363973
v 11.84872 1.707247 0.3059142
v 11.85 2 0.2499999
v 11.84872 1.707247 0.2177426
v 11.84872 1.707247 0.3059142
v 11.84872 1.707247 0.2177426
v 11.84872 -0.6733875 -0.8403163
v 11.70246 1.707247 0.2177426
v 11.70246 -0.6733875 -0.8403163
v 11.84872 -0.6733875 1.363973
v 11.84872 1.707247 0.3059142
v 11.64999 -0.7000008 1.4
v 11.70246 1.707247 0.3059142
v 11.84872 1.707247 0.3059142
v 11.84872 1.707247 0.2177426
v 11.70246 1.707247 0.3059142
v 11.70246 1.707247 0.2177426
v 11.84872 -2.260475 1.363973
v 11.84872 -0.6733875 1.363973
v 11.70246 -2.260475 1.363973
v 11.64999 -0.7000008 1.4
v 11.84872 -0.6733875 -0.8403163
v 11.84872 -2.260475 -0.8403163
v 11.70246 -0.6733875 -0.8403163
v 11.70246 -2.260475 -0.8403163
v 11.84872 -2.260475 -0.8403163
v 11.84872 -2.260475 1.363973
v 11.70246 -2.260475 -0.8403163
v 11.70246 -2.260475 1.363973

vn -8.2579E-09 0.4201235 0.9074669
vn -1.65158E-08 0.4201235 0.9074669
vn -8.2579E-09 0.4201235 0.9074669
vn 0 0.4201235 0.9074669
vn 1 0 0
vn 1 0 0
vn 1 0 0
vn 8.257901E-09 0.4201234 -0.907467
vn 1.65158E-08 0.4201234 -0.907467
vn 8.257901E-09 0.4201234 -0.907467
vn 0 0.4201235 -0.9074669
vn -0.9996908 -0.0107864 0.02240255
vn -0.9997625 -0.0217904 0
vn -0.9996908 -0.0107864 0.02240255
vn -0.9996752 -0.01035068 0.02328905
vn 0 -1 0
vn 0 -1 0
vn 0 -1 0
vn 0 -1 0
vn 0 0 -1
vn 0 0 -1
vn 0 0 -1
vn 0 0 -1
vn -0.9997925 0.01652952 0.01190125
vn -1 0 0
vn -0.9997925 0.01652952 0.01190125
vn -0.9991707 0.0330455 0.02379275
vn 1 0 0
vn 1 0 0
vn 1 0 0
vn 1 0 0
vn 1 0 0
vn 1 0 0
vn 0 0 1
vn 0 0 1
vn 0 0 1
vn 0 0 1
vn -0.9999561 0 -0.009366186
vn -0.9999561 0 -0.009366187
vn -0.9999561 0 -0.009366186
vn -0.9999561 0 -0.009366185
vn -0.9999682 0 0.0079787
vn -0.9999682 0 0.0079787
vn -0.9999682 0 0.0079787
vn -0.9999682 0 0.0079787
vn -0.9999858 0.005319243 0
vn -0.9999859 0.005319243 0
vn -0.9999858 0.005319243 0
vn -0.9999859 0.005319243 0
vn -0.9999365 -0.004661317 0.01026077
vn -0.9999556 -0.003829715 0.008616866
vn -0.9999365 -0.004661317 0.01026077
vn -0.9999077 -0.005710983 0.01233573
vn -0.9999031 -0.005758277 -0.01267546
vn -0.9998235 -0.00763052 -0.01716868
vn -0.9999031 -0.005758277 -0.01267546
vn -0.9999356 -0.004767979 -0.01029884
vn -0.9999905 -0.004352119 0
vn -0.9999905 -0.004352119 0
vn -0.9999905 -0.004352119 0
vn 0 -0.4061382 0.9138116
vn 0 -0.4061382 0.9138116
vn 0 -0.4061382 0.9138116
vn 0 -0.4061382 0.9138116
vn 0.06356414 -0.4085754 -0.9105085
vn 0 -0.413766 -0.9103832
vn 0.06356414 -0.4085754 -0.9105085
vn 0.1105893 -0.4036471 -0.9082066
vn 0 -1 0
vn 0 -1 0
vn 0 -1 0
vn 0 -1 0
vn 0.1045935 0.009639145 -0.9944683
vn 0.1805092 0.0166354 -0.9834326
vn 0.1045935 0.009639145 -0.9944683
vn 0 0 -1
vn 0 0 1
vn 0 0 1
vn 0 0 1
vn 0 0 1
vn 0 1 0
vn 0 1 0
vn 0 1 0
vn 0 1 0
vn 0 0.4201235 0.9074669
vn 4.886109E-09 0.4201235 0.9074669
vn 4.886109E-09 0.4201235 0.9074669
vn 9.772218E-09 0.4201235 0.9074669
vn -1 0 0
vn -1 0 0
vn -1 0 0
vn 0 0.4201235 -0.9074669
vn -4.886109E-09 0.4201234 -0.9074669
vn -4.886109E-09 0.4201234 -0.9074669
vn -9.772218E-09 0.4201234 -0.9074669
vn 0.9996752 -0.01035068 0.02328905
vn 0.9996908 -0.0107864 0.02240255
vn 0.9996908 -0.0107864 0.02240255
vn 0.9997626 -0.02179039 0
vn 0 -1 0
vn 0 -1 0
vn 0 -1 0
vn 0 -1 0
vn 0 0 -1
vn 0 0 -1
vn 0 0 -1
vn 0 0 -1
vn 0.9991707 0.0330455 0.02379275
vn 0.9997925 0.01652952 0.01190125
vn 0.9997925 0.01652952 0.01190125
vn 1 0 0
vn -1 0 0
vn -1 0 0
vn -1 0 0
vn -1 0 0
vn -1 0 0
vn -1 0 0
vn 0 0 1
vn 0 0 1
vn 0 0 1
vn 0 0 1
vn 0.9999561 0 -0.009366187
vn 0.9999561 0 -0.009366186
vn 0.9999561 0 -0.009366186
vn 0.9999561 0 -0.009366185
vn 0.9999682 0 0.0079787
vn 0.9999682 0 0.0079787
vn 0.9999682 0 0.0079787
vn 0.9999682 0 0.0079787
vn 0.9999859 0.005319243 0
vn 0.9999858 0.005319243 0
vn 0.9999858 0.005319243 0
vn 0.9999859 0.005319243 0
vn 0.9999077 -0.005710983 0.01233573
vn 0.9999365 -0.004661318 0.01026077
vn 0.9999365 -0.004661318 0.01026077
vn 0.9999556 -0.003829716 0.008616868
vn 0.9999356 -0.004767979 -0.01029884
vn 0.9999031 -0.005758276 -0.01267545
vn 0.9999031 -0.005758276 -0.01267545
vn 0.9998235 -0.007630516 -0.01716867
vn 0.9999905 -0.004352119 0
vn 0.9999905 -0.004352119 0
vn 0.9999905 -0.004352119 0
vn 0 -0.4061382 0.9138116
vn 0 -0.4061382 0.9138116
vn 0 -0.4061382 0.9138116
vn 0 -0.4061382 0.9138116
vn -0.1105892 -0.4036471 -0.9082066
vn -0.06356414 -0.4085754 -0.9105085
vn -0.06356414 -0.4085754 -0.9105085
vn 0 -0.413766 -0.9103832
vn 0 -1 0
vn 0 -1 0
vn 0 -1 0
vn 0 -1 0
vn 0 0 -1
vn -0.1045935 0.009639145 -0.9944683
vn -0.1045935 0.009639145 -0.9944683
vn -0.1805092 0.0166354 -0.9834325
vn 0 0 1
vn 0 0 1
vn 0 0 1
vn 0 0 1
vn 0 1 0
vn 0 1 0
vn 0 1 0
vn 0 1 0

vt 0 2.975316
vt 6.550003 2.975316
vt 6.550003 0
vt 0 0
vt 1.25 2.700001
vt 2.5 0
vt 0 0
vt 0 2.975316
vt 6.550003 2.975316
vt 6.550003 0
vt 0 0
vt 1.058059 2.407819
vt 1.14623 2.407819
vt 2.240316 -1.192093E-07
vt 0 0.02775085
vt 0 2.5
vt 6.550003 2.5
vt 6.550003 0
vt 0 0
vt 6.550003 0
vt 0 0
vt 0 1.799999
vt 6.550003 1.799999
vt 2.204289 0
vt 0 0
vt 0 1.587088
vt 2.240316 1.560474
vt 2.5 0
vt 0 0
vt 0 1.799999
vt 2.5 0
vt 0 1.799999
vt 2.5 1.799999
vt 6.550003 0
vt 0 0
vt 0 1.799999
vt 6.550003 1.799999
vt 0 0.2395256
vt 0 1.826613
vt 0.1360328 1.799999
vt 0.1360328 0
vt 0.1596888 1.826613
vt 0.1596888 0.2395256
vt 0 0
vt 0 1.799999
vt 0.1596837 0.2395289
vt 2.363973 0.2395289
vt 2.5 0
vt 0 0
vt 1.217708 2.407265
vt 0.1596888 0.02661419
vt 0 0
vt 1.249954 2.700022
vt 1.113787 0.02662134
vt 0.055884 2.407324
vt -5.960464E-08 2.700086
vt 1.249816 0
vt 0.0881716 0
vt 1.490116E-08 0
vt 0.03225736 0.2927561
vt 0.1462631 2.605169
vt 0.1462631 0
vt 0 0
vt 0 2.605169
vt 0 0
vt 0.05246735 2.644213
vt 0.1987305 2.644213
vt 0.1987305 0.03913569
vt 0.1462631 0.0881716
vt 0.1462631 1.490116E-08
vt 0 1.490116E-08
vt 0 0.0881716
vt 0.05810928 0
vt 0 1.56069
vt 0.2019691 1.587307
vt 0.2019691 0.0004394054
vt 0.1462631 1.587088
vt 0.1462631 0
vt 0 0
vt 0 1.587088
vt 0 0
vt 0 2.204289
vt 0.1462631 2.204289
vt 0.1462631 0
vt 6.550003 0
vt 0 0
vt 6.550003 2.975316
vt 0 2.975316
vt 2.5 0
vt 0 0
vt 1.25 2.700001
vt 6.550003 0
vt 0 0
vt 6.550003 2.975316
vt 0 2.975316
vt 2.240931 0.0266155
vt -1.192093E-07 0
vt 1.183159 2.407376
vt 1.095011 2.407398
vt 6.550003 0
vt 0 0
vt 6.550003 2.5
vt 0 2.5
vt 0 1.799999
vt 6.550003 1.799999
vt 0 0
vt 6.550003 0
vt 0 1.561327
vt 2.24093 1.587955
vt 0.03726566 0
vt 2.24093 0.001734018
vt 0 1.799999
vt 2.5 1.799999
vt 0 0
vt 2.5 1.799999
vt 2.5 0
vt 0 0
vt 0 1.799999
vt 6.550003 1.799999
vt 0 0
vt 6.550003 0
vt 0 0
vt 0 1.799999
vt 0.1360328 0.2395256
vt 0.1360328 1.826613
vt 0.1596888 1.799999
vt 0.1596888 0
vt 0 1.826613
vt 0 0.2395256
vt 2.5 0
vt 0 0
vt 2.340316 0.2395289
vt 0.1360269 0.2395289
vt 0 2.700045
vt 1.249905 0
vt 0.03223914 2.407286
vt 1.090218 0.02661753
vt 0 -1.192093E-07
vt 1.249934 2.700032
vt 0.1360328 0.02661431
vt 1.194036 2.407273
vt 0.05591424 0.2927561
vt 0.08817159 0
vt 0 0
vt 0.1462631 2.605169
vt 0.1462631 0
vt 0 2.605169
vt 0 0
vt 0.1278899 0.02908909
vt 0 2.631117
vt 0.3295178 0
vt 0.1451907 2.638253
vt 0.1462631 0.0881716
vt 0.1462631 1.490116E-08
vt 0 0.0881716
vt 0 1.490116E-08
vt 0 0
vt 0 1.587088
vt 0.1462631 0
vt 0.1987305 1.560474
vt 0.1462631 1.587088
vt 0.1462631 0
vt 0 1.587088
vt 0 0
vt 0 0
vt 0 2.204289
vt 0.1462631 0
vt 0.1462631 2.204289

g Default_Prototype
usemtl Default_Prototype
usemap Default_Prototype
f 2/2/2 1/1/1 3/3/3
f 3/3/3 1/1/1 4/4/4
f 6/6/6 5/5/5 7/7/7
f 9/9/9 8/8/8 10/10/10
f 10/10/10 8/8/8 11/11/11
f 13/13/13 12/12/12 14/14/14
f 14/14/14 12/12/12 15/15/15
f 17/17/17 16/16/16 18/18/18
f 18/18/18 16/16/16 19/19/19
f 21/21/21 20/20/20 22/22/22
f 22/22/22 20/20/20 23/23/23
f 25/25/25 24/24/24 26/26/26
f 26/26/26 24/24/24 27/27/27
f 29/29/29 28/28/28 30/30/30
f 32/32/32 31/31/31 33/33/33
f 35/35/35 34/34/34 36/36/36
f 36/36/36 34/34/34 37/37/37
f 39/39/39 38/38/38 40/40/40
f 40/40/40 38/38/38 41/41/41
f 43/43/43 42/42/42 44/44/44
f 44/44/44 42/42/42 45/45/45
f 47/47/47 46/46/46 48/48/48
f 48/48/48 46/46/46 49/49/49
f 51/51/51 50/50/50 52/52/52
f 52/52/52 50/50/50 53/53/53
f 55/55/55 54/54/54 56/56/56
f 56/56/56 54/54/54 57/57/57
f 59/59/59 58/58/58 60/60/60
f 62/62/62 61/61/61 63/63/63
f 63/63/63 61/61/61 64/64/64
f 66/66/66 65/65/65 67/67/67
f 67/67/67 65/65/65 68/68/68
f 70/70/70 69/69/69 71/71/71
f 71/71/71 69/69/69 72/72/72
f 74/74/74 73/73/73 75/75/75
f 75/75/75 73/73/73 76/76/76
f 78/78/78 77/77/77 79/79/79
f 79/79/79 77/77/77 80/80/80
f 82/82/82 81/81/81 83/83/83
f 83/83/83 81/81/81 84/84/84
f 86/86/86 85/85/85 87/87/87
f 88/88/88 86/86/86 87/87/87
f 90/90/90 89/89/89 91/91/91
f 93/93/93 92/92/92 94/94/94
f 95/95/95 93/93/93 94/94/94
f 97/97/97 96/96/96 98/98/98
f 99/99/99 97/97/97 98/98/98
f 101/101/101 100/100/100 102/102/102
f 103/103/103 101/101/101 102/102/102
f 105/105/105 104/104/104 106/106/106
f 107/107/107 105/105/105 106/106/106
f 109/109/109 108/108/108 110/110/110
f 111/111/111 109/109/109 110/110/110
f 113/113/113 112/112/112 114/114/114
f 116/116/116 115/115/115 117/117/117
f 119/119/119 118/118/118 120/120/120
f 121/121/121 119/119/119 120/120/120
f 123/123/123 122/122/122 124/124/124
f 125/125/125 123/123/123 124/124/124
f 127/127/127 126/126/126 128/128/128
f 129/129/129 127/127/127 128/128/128
f 131/131/131 130/130/130 132/132/132
f 133/133/133 131/131/131 132/132/132
f 135/135/135 134/134/134 136/136/136
f 137/137/137 135/135/135 136/136/136
f 139/139/139 138/138/138 140/140/140
f 141/141/141 139/139/139 140/140/140
f 143/143/143 142/142/142 144/144/144
f 146/146/146 145/145/145 147/147/147
f 148/148/148 146/146/146 147/147/147
f 150/150/150 149/149/149 151/151/151
f 152/152/152 150/150/150 151/151/151
f 154/154/154 153/153/153 155/155/155
f 156/156/156 154/154/154 155/155/155
f 158/158/158 157/157/157 159/159/159
f 160/160/160 158/158/158 159/159/159
f 162/162/162 161/161/161 163/163/163
f 164/164/164 162/162/162 163/163/163
f 166/166/166 165/165/165 167/167/167
f 168/168/168 166/166/166 167/167/167
