mtllib ./pb roof2.All files.mtl
g main roof 2 pb 
v -13 0.04999924 -10.75
v -28.4 0 -10.8
v -20.5 6.599998 -13.9
v -28.4 0 -10.8
v -28.45 0 -44.85
v -20.5 6.599998 -13.9
v -20.55 6.65 -42.45
v -27.6 0.2999992 -44.7
v -13.9 0.2999992 -44.6
v -20.6 6.099998 -42.6
v -13 0.04999924 -44.8
v -13 0.04999924 -10.75
v -20.55 6.65 -42.45
v -20.5 6.599998 -13.9
v -13 0 -44.6
v -13 0.04999924 -10.75
v -13 0.04999924 -44.8
v -13 0 -44.6
v -13 0 -10.75
v -13 0.04999924 -10.75
v -28.45 -0.05000114 -44.85
v -13 0.04999924 -44.8
v -28.45 0 -44.85
v -13 0 -44.6
v -28.45 0 -44.85
v -13 0.04999924 -44.8
v -28.5 0 -45
v -13 0 -44.9
v -13.9 0.2999992 -44.8
v -20.6 6.099998 -42.8
v -13.9 0.2999992 -44.6
v -20.6 6.099998 -42.6
v -20.5 6.599998 -25.7875
v -28.4 0 -25.8
v -13 0 -25.8
v -20.5 6.599998 -25.7875
v -20.6 6.599998 -42.2
v -28.4 0 -44.6
v -28.4 0 -25.8
v -20.6 6.599998 -42.2
v -13 0 -44.6
v -28.4 0 -44.6
v -20.6 6.599998 -42.2
v -20.5 6.599998 -25.7875
v -13 0 -25.8
v -13 0 -44.6
v -13.05 0 -12.9
v -13.05 -1.5 -10.8
v -13 0.04999924 -10.75
v -13.05 -1.5 -12.6
v -13.05 -1.5 -10.8
v -28.4 0 -10.8
v -13 0.04999924 -10.75
v -28.4 -1.5 -10.8
v -28.4 -1.5 -25.8
v -28.4 0 -10.8
v -28.4 -1.5 -10.8
v -28.4 0 -25.8
v -28.5 0 -45
v -13 0 -44.9
v -27.6 0.2999992 -44.9
v -13.9 0.2999992 -44.8
v -13 0 -44.9
v -20.6 6.599998 -42.6
v -13.9 0.2999992 -44.8
v -20.6 6.099998 -42.8
v -20.6 6.599998 -42.6
v -28.5 0 -45
v -20.6 6.099998 -42.8
v -27.6 0.2999992 -44.9
v -13 0.04999924 -44.8
v -20.55 6.65 -42.45
v -13 0 -44.9
v -20.6 6.599998 -42.6
v -20.55 6.65 -42.45
v -28.45 0 -44.85
v -20.6 6.599998 -42.6
v -28.5 0 -45
v -27.6 0.2999992 -44.9
v -13.9 0.2999992 -44.8
v -27.6 0.2999992 -44.7
v -13.9 0.2999992 -44.6
v -20.6 6.099998 -42.8
v -27.6 0.2999992 -44.9
v -20.6 6.099998 -42.6
v -27.6 0.2999992 -44.7

vn -0.004326307 0.4293704 0.903118
vn -0.004326307 0.4293704 0.903118
vn -0.004326307 0.4293704 0.903118
vn -0.6409214 0.7676059 0.0009412048
vn -0.6425225 0.766265 0.001638423
vn -0.6425225 0.766265 0.001638423
vn -0.6444228 0.7646653 0.002467679
vn 0.006882449 0.3330793 -0.9428737
vn 0.006882449 0.3330793 -0.9428737
vn 0.006882449 0.3330793 -0.9428737
vn 0.6581517 0.7528852 0
vn 0.6579709 0.7530434 7.599859E-05
vn 0.6579709 0.7530434 7.599859E-05
vn 0.6577535 0.7532334 0.0001673515
vn 0.9999999 0 0
vn 0.9999999 0 0
vn 1 0 0
vn 0.9999999 0 0
vn 0.9999999 0 0
vn 0.9999999 0 0
vn 0.007236278 -0.8944037 -0.4472021
vn 0.007236278 -0.8944037 -0.4472021
vn 0.003236671 -7.579794E-05 -0.9999948
vn 0.007063981 -0.9701182 -0.2425296
vn 0.003239671 -0.9999941 -0.001079781
vn 0.0006342566 -0.980606 0.1959884
vn 0.0006342566 -0.980606 0.1959884
vn -0.002885215 -0.8944303 0.4471981
vn -0.654501 -0.7560611 0
vn -0.654501 -0.7560611 0
vn -0.654501 -0.7560611 0
vn -0.654501 -0.7560611 0
vn 0 0.001894052 -0.9999983
vn 0 0.001894052 -0.9999983
vn 0 0.001894052 -0.9999983
vn 0.6436983 -0.7652772 -0.001828011
vn 0.6466432 -0.7627825 -0.003939882
vn 0.6436983 -0.7652772 -0.001828011
vn 0.6411393 -0.7674246 0
vn 0 -0.3417428 0.9397935
vn 0 -0.3417428 0.9397935
vn 0 -0.3417428 0.9397935
vn -0.6579811 -0.7530321 0.001868572
vn -0.6606187 -0.7507108 0.004025033
vn -0.6579811 -0.7530321 0.001868572
vn -0.6556866 -0.7550331 0
vn 0.9997712 -0.01741 -0.01243571
vn 0.9997712 -0.01741 -0.01243571
vn 0.9992502 -0.03150501 -0.02250357
vn 1 -5.933965E-06 -4.238545E-06
vn -0.001599223 -0.01636539 0.9998648
vn -0.001599223 -0.01636539 0.9998648
vn -0.003140782 -0.03214069 0.9994784
vn 0 0 1
vn -1 0 0
vn -1 0 0
vn -1 0 0
vn -1 0 0
vn 0.006155349 0.2995611 -0.9540572
vn 0.006497715 0.3162229 -0.9486626
vn 0.006497715 0.3162229 -0.9486626
vn 0.006877928 0.3347266 -0.9422901
vn 0.007719142 0.3369802 -0.9414801
vn 0.0253465 0.3534962 -0.9350925
vn 0.0253465 0.3534962 -0.9350925
vn 0.04430279 0.3710272 -0.9275646
vn -0.02819658 0.3712443 -0.9281071
vn -0.02238111 0.3647037 -0.9308546
vn -0.02238111 0.3647037 -0.9308546
vn -0.01496721 0.3563239 -0.9342426
vn 0.5406612 0.7524341 -0.3762027
vn 0.5270984 0.7474201 -0.4043891
vn 0.5270984 0.7474201 -0.4043891
vn 0.5187786 0.7440814 -0.4209653
vn -0.6352477 0.7709824 -0.04523738
vn -0.656333 0.748592 0.09400517
vn -0.656333 0.748592 0.09400517
vn -0.6639617 0.7142703 0.2212981
vn 0 1 0
vn 0 1 0
vn 0 1 0
vn 0 1 0
vn 0.6380178 -0.7700216 0
vn 0.6380178 -0.7700216 0
vn 0.6380178 -0.7700216 0
vn 0.6380178 -0.7700216 0

vt 15.40006 0.05536175
vt 0 -4.768372E-07
vt 7.885059 7.307929
vt 22.19129 11.89711
vt -11.85873 11.85873
vt 19.09129 22.19129
vt -9.458767 22.18496
vt 15.45008 0
vt 9.536743E-07 0.05311489
vt 7.545101 7.064278
vt 22.03027 11.98125
vt -12.01968 12.04068
vt 19.69777 22.01342
vt -8.852307 21.9927
vt 34.05 0
vt 1.907349E-06 0.04999924
vt 34.05 0.04999924
vt 34.05 0
vt 1.907349E-06 0
vt 1.907349E-06 0.04999924
vt 15.45008 0
vt -9.536743E-07 0.1000004
vt 15.45008 0.05000114
vt -9.536743E-07 0.05000114
vt 0.04999542 0.1500015
vt 15.50008 0.2000046
vt 0 0
vt 15.49992 0.1000557
vt 8.861712 0
vt 0 2
vt 8.861712 0.2000008
vt 0 2.200001
vt 7.449997 6.599998
vt 15.4 0
vt 0 0
vt 10.3323 24.10013
vt 10.32631 2.400017
vt 5.722046E-06 0
vt 0 24.09987
vt 7.900002 7.069831
vt 15.45 0
vt 0 0
vt 0 2.400009
vt 0.07057953 24.10001
vt 10.02359 24.10001
vt 10.06102 0
vt 2.150582 1.500745
vt 0.05111408 0
vt 0 1.550769
vt 1.850661 0.001276612
vt 15.34993 0
vt 0 1.500775
vt 15.40008 1.550801
vt 0 0.001550317
vt 0 0
vt 15 1.5
vt 15 0
vt 0 1.5
vt 15.50032 0
vt -9.536743E-07 0
vt 14.59969 0.3144388
vt 0.8993368 0.3179169
vt -9.536743E-07 9.536743E-07
vt 7.580884 7.010002
vt 0.8991499 0.3186359
vt 7.582524 6.471852
vt 0.006072998 7.107968
vt 7.829552 0
vt 0 6.569487
vt 6.933002 0.3258152
vt 0.0291748 0.107933
vt 10.01176 2.644257
vt -9.536743E-07 0
vt 10.02319 2.479019
vt 9.536743E-07 2.550869
vt 10.32574 0.1484108
vt 0.07038784 2.400715
vt 10.36432 0
vt 13.7 0
vt 0 0.09999847
vt 13.7 0.1999969
vt 0 0.2999992
vt 9.090655 2.099998
vt 0 0
vt 9.090655 2.299999
vt 0 0.1999969

g Hungarian Roof
usemtl Hungarian Roof
usemap Hungarian Roof
f 2/2/2 1/1/1 3/3/3
f 5/5/5 4/4/4 6/6/6
f 7/7/7 5/5/5 6/6/6
f 9/9/9 8/8/8 10/10/10
f 12/12/12 11/11/11 13/13/13
f 14/14/14 12/12/12 13/13/13
f 16/16/16 15/15/15 17/17/17
f 19/19/19 18/18/18 20/20/20
f 22/22/22 21/21/21 23/23/23
f 24/24/24 21/21/21 22/22/22
f 26/26/26 25/25/25 27/27/27
f 28/28/28 26/26/26 27/27/27
f 30/30/30 29/29/29 31/31/31
f 32/32/32 30/30/30 31/31/31

g Default_Prototype
usemtl Default_Prototype
usemap Default_Prototype
f 34/34/34 33/33/33 35/35/35
f 37/37/37 36/36/36 38/38/38
f 38/38/38 36/36/36 39/39/39
f 41/41/41 40/40/40 42/42/42
f 44/44/44 43/43/43 45/45/45
f 45/45/45 43/43/43 46/46/46
f 48/48/48 47/47/47 49/49/49
f 50/50/50 47/47/47 48/48/48

g castle wall 3
usemtl castle wall 3
usemap castle wall 3
f 52/52/52 51/51/51 53/53/53
f 54/54/54 51/51/51 52/52/52
f 56/56/56 55/55/55 57/57/57
f 58/58/58 55/55/55 56/56/56

g wood_american_cherry_1
usemtl wood_american_cherry_1
usemap wood_american_cherry_1
f 60/60/60 59/59/59 61/61/61
f 62/62/62 60/60/60 61/61/61
f 64/64/64 63/63/63 65/65/65
f 66/66/66 64/64/64 65/65/65
f 68/68/68 67/67/67 69/69/69
f 70/70/70 68/68/68 69/69/69
f 72/72/72 71/71/71 73/73/73
f 74/74/74 72/72/72 73/73/73
f 76/76/76 75/75/75 77/77/77
f 78/78/78 76/76/76 77/77/77
f 80/80/80 79/79/79 81/81/81
f 82/82/82 80/80/80 81/81/81
f 84/84/84 83/83/83 85/85/85
f 86/86/86 84/84/84 85/85/85
