mtllib ./3rd floor.All files.mtl
g 3rd Floor Hallway Wall 2
v 5.850006 0 0.07499981
v 2 0 0.07499981
v 5.850006 3 0.07499981
v 2 3 0.07499981
v -1.573631 0 0.07499981
v -1.573631 3 0.07499981
v 5.850006 4.800001 0.07499981
v 2 4.800001 0.07499981
v 2 3 0.07499981
v -1.573631 3 0.07499981
v 2 4.800001 0.07499981
v -1.573631 4.800001 0.07499981
v 8.5 4.800001 0.07499981
v 8.5 3 0.07499981
v 21.5 4.800001 0.07499981
v 8.5 3 0.07499981
v 8.5 4.800001 0.07499981
v 21.5 3 0.07499981
v 24.15 4.800001 0.07499981
v 21.5 3 0.07499981
v 21.5 4.800001 0.07499981
v 24.15 3 0.07499981
v 35.15001 4.800001 0.07499981
v 24.15 3 0.07499981
v 24.15 4.800001 0.07499981
v 35.15001 3 0.07499981
v 37.7 4.800001 0.07499981
v 37.7 3 0.07499981
v 48.35 4.800001 0.07499981
v 37.7 3 0.07499981
v 37.7 4.800001 0.07499981
v 48.35 3 0.07499981
v 21.5 0 0.07499981
v 8.5 0 0.07499981
v 35.15001 0 0.07499981
v 35.15001 3 0.07499981
v 24.15 0 0.07499981
v 48.35 0 0.07499981
v 37.7 0 0.07499981

vn 0 0 1
vn 0 0 1
vn 0 0 1
vn 0 0 1
vn 0 0 1
vn 0 0 1
vn 0 0 1
vn 0 0 1
vn 0 0 0.9999999
vn 0 0 0.9999999
vn 0 0 0.9999999
vn 0 0 0.9999999
vn 0 0 1
vn 0 0 1
vn 0 0 0.9999999
vn 0 0 0.9999999
vn 0 0 0.9999999
vn 0 0 0.9999999
vn 0 0 1
vn 0 0 1
vn 0 0 1
vn 0 0 1
vn 0 0 0.9999999
vn 0 0 0.9999999
vn 0 0 0.9999999
vn 0 0 0.9999999
vn 0 0 0.9999999
vn 0 0 0.9999999
vn 0 0 1
vn 0 0 1
vn 0 0 1
vn 0 0 1
vn 0 0 1
vn 0 0 1
vn 0 0 1
vn 0 0 1
vn 0 0 1
vn 0 0 1
vn 0 0 1

vt -5.918832 1.149562
vt -6.178726 1.149562
vt -5.918832 1.352077
vt -6.178726 1.352077
vt -6.419964 1.149563
vt -6.419964 1.352077
vt -5.918832 1.473586
vt -6.178726 1.473586
vt -6.178726 1.352077
vt -6.419964 1.352077
vt -6.178726 1.473586
vt -6.419964 1.473586
vt -5.739944 1.473586
vt -5.739944 1.352077
vt -4.862381 1.473586
vt -5.739944 1.352077
vt -5.739944 1.473586
vt -4.862381 1.352077
vt -4.683493 1.473586
vt -4.862381 1.352077
vt -4.862381 1.473586
vt -4.683493 1.352077
vt -3.940939 1.473586
vt -4.683493 1.352077
vt -4.683493 1.473586
vt -3.940939 1.352077
vt -3.768803 1.473586
vt -3.768803 1.352077
vt -3.049875 1.473586
vt -3.768803 1.352077
vt -3.768803 1.473586
vt -3.049875 1.352077
vt -4.862381 1.149563
vt -5.739944 1.149563
vt -3.940939 1.149563
vt -3.940939 1.352077
vt -4.683493 1.149563
vt -3.049875 1.149563
vt -3.768803 1.149563

g Ceiling_strange alt
usemtl Ceiling_strange alt
usemap Ceiling_strange alt
f 2/2/2 1/1/1 3/3/3
f 4/4/4 2/2/2 3/3/3
f 5/5/5 2/2/2 4/4/4
f 6/6/6 5/5/5 4/4/4
f 4/4/4 3/3/3 7/7/7
f 8/8/8 4/4/4 7/7/7
f 10/10/10 9/9/9 11/11/11
f 12/12/12 10/10/10 11/11/11
f 3/3/3 13/13/13 7/7/7
f 14/14/14 13/13/13 3/3/3
f 16/16/16 15/15/15 17/17/17
f 18/18/18 15/15/15 16/16/16
f 20/20/20 19/19/19 21/21/21
f 22/22/22 19/19/19 20/20/20
f 24/24/24 23/23/23 25/25/25
f 26/26/26 23/23/23 24/24/24
f 26/26/26 27/27/27 23/23/23
f 28/28/28 27/27/27 26/26/26
f 30/30/30 29/29/29 31/31/31
f 32/32/32 29/29/29 30/30/30
f 14/14/14 33/33/33 20/20/20
f 34/34/34 33/33/33 14/14/14
f 22/22/22 35/35/35 36/36/36
f 37/37/37 35/35/35 22/22/22
f 30/30/30 38/38/38 32/32/32
f 39/39/39 38/38/38 30/30/30
