mtllib ./pb roof.All files.mtl
g main roof pb
v 0 -1.050001 0
v -34.8 0 -7.318428
v -5 0 -7.318428
v -41.4 -1.050001 0
v -34.8 -1.075001 -60.45
v -12.7 0 -59.4
v -34.6 0 -59.4
v -12.7 -1.075001 -60.45
v -12.5 4.075 -52.88596
v -5 0 -58.68823
v -5 0 -7.318428
v -12.5 4.075 -7.318428
v -20 8.15 -13.35
v -20 8.15 -7.318428
v -20 8.150001 -59.40058
v -5 0 -58.68823
v -8.75 2.042262 -48.28485
v -5 0 -46.5059
v -11.2647 3.057639 -50.94889
v -12.5 4.075 -52.88596
v -13.20736 4.099998 -58.8814
v -8.75 2.042262 -48.28485
v -11.2647 3.057639 -50.94889
v -8.75 2.049999 -48.7
v 0 -1.1 -45.05
v -5 0 -58.68823
v -5 0 -46.5059
v 0 -1.1 -58.64069
v -41.4 -1.1 -21.4
v -34.8 0 -7.318428
v -41.4 -1.050001 0
v -34.8 0 -21.4
v -5 0 -58.68823
v 0 -1.050001 0
v -5 0 -7.318428
v 0 -1.1 -58.64069
v -27.4 4.099998 -59.39394
v -34.8 0 -45.5
v -34.6 0 -59.4
v -20 8.15 -13.35
v -27.4 4.099998 -59.39394
v -20 8.150001 -59.40058
v -34.8 0 -45.5
v -27.4 4.099998 -59.39394
v -34.8 0 -7.318428
v -27.4 4.075 -7.318428
v -27.4 4.099998 -59.39394
v -20 8.15 -13.35
v -20 8.15 -7.318428
v -13.20736 4.099998 -58.8814
v -12.5 4.075 -52.88596
v -20 8.150001 -59.40058
v 0 -1.1 0
v -41.4 -1.050001 0
v 0 -1.050001 0
v -41.4 -1.1 0
v -41.4 -1.1 0
v -41.4 -1.1 -21.4
v -41.4 -1.050001 0
v -41.4 -1.150002 -21.4
v -34.8 -1.1 -60.45
v -12.7 -1.075001 -60.45
v -34.8 -1.075001 -60.45
v -12.7 -1.1 -60.45
v 0 -1.125 -58.64069
v 0 -1.050001 0
v 0 -1.1 -58.64069
v 0 -1.075001 0
v -19.9 4 -59.25
v -19.9 0.1999989 -59.4
v -12.9 4 -59.4
v -12.8 0.1999989 -59.42858
v -19.9 4 -59.25
v -12.9 4 -59.4
v -20 7.799999 -59.4
v -26.9 4 -59.4
v -19.9 0.1999989 -59.4
v -19.9 4 -59.25
v -26.9 4 -59.4
v -33.8 0.1999989 -59.4
v -34.8 -1.1 -45.5
v -34.6 0 -59.4
v -34.8 0 -45.5
v -34.8 -1.1 -60.45
v -34.6 0 -59.4
v -34.8 -1.1 -60.45
v -34.8 -1.075001 -60.45
v -19.9 4.099998 -59.4
v -12 4 -59.4
v -19.9 0 -59.4
v -12.1 0 -59.4
v -27.4 4.099998 -59.39394
v -34.6 0 -59.4
v -20 8.150001 -59.40058
v -20 7.799999 -7.600002
v -33.8 0.2999992 -7.600002
v -12.8 4.099998 -7.600002
v -6 0.2999992 -7.600002
v -6.3125 0.2624989 -7.600002
v -33.6375 0.2624989 -7.600002
v -13.1875 4 -7.600002
v -26.85 4 -7.600002
v -20.0625 7.737499 -7.600002
v -34.6 0.09999847 -7.700001
v -20 8.099998 -7.700001
v -20 8.150001 -59.40058
v -34.6 0 -59.4
v -13.20736 4.099998 -58.8814
v -20 8.150001 -59.40058
v -12.5 4.075 -52.88596
v -12.5 4.075 -52.88596
v -20 8.150001 -59.40058
v -12.5 4.099998 -7.700001
v -20 8.099998 -7.700001
v -8.75 2.042262 -48.28485
v -5.200001 0.09999847 -7.700001
v -5 0 -58.68823
v -8.75 2.042262 -48.28485
v -5 0 -46.5059
v -8.75 2.042262 -48.28485
v -5 0 -58.68823
v -12 4 -59.4
v -20 8.150001 -59.40058
v -12.95 3.949999 -59.45
v -20 7.799999 -59.45
v -20 8.150001 -59.40058
v -27.4 4.099998 -59.39394
v -20 7.799999 -59.45
v -26.95 4 -59.45
v -19.9 0 -59.4
v -12.1 0 -59.4
v -19.95 0.1999989 -59.45
v -12.8 0.1999989 -59.42858
v -12.1 0 -59.4
v -12 4 -59.4
v -12.8 0.1999989 -59.42858
v -12.95 3.949999 -59.45
v -27.4 4.099998 -59.39394
v -34.6 0 -59.4
v -26.95 4 -59.45
v -33.85 0.1999989 -59.45
v -34.6 0 -59.4
v -19.9 0 -59.4
v -33.85 0.1999989 -59.45
v -19.95 0.1999989 -59.45
v -19.95 0.1999989 -59.45
v -12.8 0.1999989 -59.42858
v -19.9 0.1999989 -59.4
v -12.95 3.949999 -59.45
v -12.9 4 -59.4
v -12.8 0.1999989 -59.42858
v -12.95 3.949999 -59.45
v -20 7.799999 -59.45
v -12.9 4 -59.4
v -20 7.799999 -59.45
v -20 7.799999 -59.4
v -12.9 4 -59.4
v -20 7.799999 -59.45
v -26.95 4 -59.45
v -20 7.799999 -59.4
v -26.9 4 -59.4
v -26.95 4 -59.45
v -33.85 0.1999989 -59.45
v -26.9 4 -59.4
v -33.8 0.1999989 -59.4
v -33.85 0.1999989 -59.45
v -19.95 0.1999989 -59.45
v -33.8 0.1999989 -59.4
v -19.9 0.1999989 -59.4
v -5 0 -7.318428
v -34.8 0 -7.318428
v -6.306866 0.2627084 -7.299999
v -33.63681 0.2627084 -7.299999
v -12.5 4.075 -7.318428
v -5 0 -7.318428
v -13.18521 3.999939 -7.299999
v -6.306866 0.2627084 -7.299999
v -20 8.15 -7.318428
v -20.06355 7.737172 -7.299999
v -34.8 0 -7.318428
v -27.4 4.075 -7.318428
v -33.63681 0.2627084 -7.299999
v -26.85018 3.999939 -7.299999
v -20 8.15 -7.318428
v -20.06355 7.737172 -7.299999
v -6.306866 0.2627084 -7.299999
v -33.63681 0.2627084 -7.299999
v -6.3125 0.2624989 -7.600002
v -33.6375 0.2624989 -7.600002
v -13.18521 3.999939 -7.299999
v -6.306866 0.2627084 -7.299999
v -13.1875 4 -7.600002
v -6.3125 0.2624989 -7.600002
v -33.63681 0.2627084 -7.299999
v -26.85018 3.999939 -7.299999
v -33.6375 0.2624989 -7.600002
v -26.85 4 -7.600002
v -20.06355 7.737172 -7.299999
v -13.18521 3.999939 -7.299999
v -20.0625 7.737499 -7.600002
v -13.1875 4 -7.600002
v -26.85018 3.999939 -7.299999
v -20.06355 7.737172 -7.299999
v -26.85 4 -7.600002
v -20.0625 7.737499 -7.600002
v -20 8.099998 -7.700001
v -34.6 0.09999847 -7.700001
v -19.99767 7.797667 -7.700001
v -33.81567 0.2516656 -7.700001
v -12.5 4.099998 -7.700001
v -20 8.099998 -7.700001
v -12.84367 4.073665 -7.700001
v -19.99767 7.797667 -7.700001
v -34.6 0.09999847 -7.700001
v -5.200001 0.09999847 -7.700001
v -33.81567 0.2516656 -7.700001
v -5.983667 0.2516656 -7.700001
v -12.5 4.099998 -7.700001
v -12.84367 4.073665 -7.700001
v -19.99767 7.797667 -7.700001
v -33.81567 0.2516656 -7.700001
v -20 7.799999 -7.600002
v -33.8 0.2999992 -7.600002
v -12.84367 4.073665 -7.700001
v -19.99767 7.797667 -7.700001
v -12.8 4.099998 -7.600002
v -20 7.799999 -7.600002
v -33.81567 0.2516656 -7.700001
v -5.983667 0.2516656 -7.700001
v -33.8 0.2999992 -7.600002
v -6 0.2999992 -7.600002
v -5.983667 0.2516656 -7.700001
v -12.84367 4.073665 -7.700001
v -6 0.2999992 -7.600002
v -12.8 4.099998 -7.600002
v -34.6 0.09999847 -7.600002
v -5.200001 0.09999847 -7.700001
v -34.6 0.09999847 -7.700001
v -5.200001 0.09999847 -7.600002

vn 0 0.9898639 0.1420193
vn 0 0.9898639 0.1420193
vn 0 0.9898638 0.1420193
vn 0 0.9898638 0.1420193
vn 0 0.6987389 -0.7153766
vn 0 0.6987389 -0.7153766
vn 0 0.6987389 -0.7153766
vn 0 0.698739 -0.7153767
vn 0.477415 0.8786778 8.888341E-09
vn 0.477415 0.878678 0
vn 0.477415 0.8786779 4.322239E-09
vn 0.477415 0.8786779 8.624077E-09
vn 0.4774151 0.878678 1.287212E-08
vn 0.477415 0.878678 0
vn 0.4774151 0.8786779 1.819679E-08
vn -0.4782757 -0.8782097 0
vn -0.4782757 -0.8782097 0
vn -0.4782757 -0.8782097 0
vn 0.7057049 0.7039378 -0.08032554
vn 0.7057049 0.7039378 -0.08032554
vn 0.7057049 0.7039378 -0.08032554
vn 0.3584498 0.9333869 0.01739648
vn 0.3584498 0.9333869 0.01739648
vn 0.3584498 0.9333869 0.01739648
vn -0.2148619 -0.9766445 0
vn -0.2148619 -0.9766445 0
vn -0.2148618 -0.9766444 0
vn -0.2148619 -0.9766445 0
vn -0.1615112 0.9868699 -0.001390658
vn -0.1615112 0.9868699 -0.001390658
vn -0.1596086 0.9871777 -0.002306454
vn -0.164399 0.9863939 0
vn 0.2105097 0.9775917 -0.0004443107
vn 0.2105097 0.9775917 -0.0004443107
vn 0.2055175 0.9786535 0
vn 0.2148693 0.9766425 -0.0008327218
vn -0.4948212 0.8689656 -0.007119612
vn -0.4948212 0.8689656 -0.007119612
vn -0.4948212 0.8689656 -0.007119612
vn -0.4800978 0.877215 1.816649E-08
vn -0.4800978 0.877215 1.816649E-08
vn -0.4800978 0.877215 1.816649E-08
vn -0.4846387 0.8747143 0
vn -0.4833327 0.8754367 0.000242461
vn -0.4833327 0.8754367 0.000242461
vn -0.482373 0.8759657 0.0004204866
vn -0.48211 0.8761107 0.0004205562
vn -0.4821373 0.8760955 0.0003768955
vn -0.4823731 0.8759658 0
vn 0.5144964 0.855587 -0.05713404
vn 0.5144964 0.855587 -0.05713404
vn 0.5144964 0.855587 -0.05713404
vn 0 0 1
vn 0 0 1
vn 0 0 1
vn 0 0 1
vn -1 0 0
vn -1 0 0
vn -1 0 0
vn -1 0 0
vn 0 0 -1
vn 0 0 -1
vn 0 0 -1
vn 0 0 -1
vn 1 0 0
vn 1 0 0
vn 1 0 0
vn 1 0 0
vn -0.0214072 0.03943432 -0.9989929
vn -0.0126606 0.02332216 -0.9996477
vn -0.0126606 0.02332216 -0.9996477
vn -0.004024631 0.007413794 -0.9999644
vn 0 -0.03944337 -0.9992217
vn -0.02140672 -0.03999678 -0.9989704
vn 0 -0.03944337 -0.9992217
vn 0.02140768 -0.03887186 -0.9990149
vn 0.007176295 0.01321949 -0.9998868
vn 0.02140721 0.03943432 -0.9989929
vn 0.007176295 0.01321949 -0.9998868
vn 0 0 -1
vn -0.9955673 0.09379864 -0.006901574
vn -0.9955673 0.09379864 -0.006901574
vn -0.9998965 0 -0.01438678
vn -0.9838704 0.1788827 0
vn -0.9823391 0 0.187109
vn -0.9823391 0 0.187109
vn -0.9823391 0 0.187109
vn 0.0003943485 7.598382E-05 0.9999999
vn 6.066701E-07 4.792768E-05 1
vn 0.0001608434 -0.0005766828 0.9999998
vn 0 0 1
vn 0.0004072059 -0.00069365 0.9999996
vn 0 -0.001479357 0.9999989
vn 0.0003948481 0.000152918 0.9999999
vn 0 0 -1
vn 0 0 -1
vn 0 0 -1
vn 0 0 -1
vn 0 0 1
vn 0 0 1
vn 0 0 1
vn 0 0 1
vn 0 0 1
vn 0.4839881 -0.8750745 0.0004231153
vn 0.4805344 -0.8769754 -0.0008481684
vn 0.4839881 -0.8750745 0.0004231153
vn 0.4874185 -0.8731669 0.001688885
vn -0.5198194 -0.8523203 0.05777567
vn -0.5144964 -0.855587 0.05713404
vn -0.5198194 -0.8523203 0.05777567
vn -0.4774987 -0.8786323 0.000486085
vn -0.4739358 -0.8805593 -0.000227249
vn -0.4760202 -0.8794343 -5.333103E-05
vn -0.4705881 -0.8823527 -0.0008533642
vn -0.4790693 -0.8777772 0.0001095962
vn -0.4797848 -0.8773862 -2.165817E-05
vn -0.4787139 -0.8779709 -0.0002047983
vn 0.4352806 0.8991351 0.04568249
vn 0.4782757 0.8782097 0
vn 0.4352806 0.8991351 0.04568249
vn -0.4787139 -0.8779709 -0.0002047983
vn 0.04753465 0.09149407 -0.9946704
vn 0.05796584 0.1089763 -0.9923528
vn 0.05796584 0.1089763 -0.9923528
vn 0.07612911 0.1394052 -0.9873047
vn -0.07717653 0.139394 -0.9872249
vn -0.08197541 0.1490189 -0.9854305
vn -0.08197541 0.1490189 -0.9854305
vn -0.08711252 0.1593243 -0.9833754
vn 0 -0.2425334 -0.970143
vn 0.001406835 -0.1902144 -0.9817415
vn 0.001406835 -0.1902144 -0.9817415
vn 0.00297034 -0.1312474 -0.9913453
vn 0.04049981 -0.001012499 -0.9991791
vn 0.04734443 -0.002455757 -0.9988756
vn 0.04734443 -0.002455757 -0.9988756
vn 0.05274634 -0.003595066 -0.9986015
vn -0.0879371 0.1558818 -0.9838536
vn -0.1016202 0.1821238 -0.9780103
vn -0.1016202 0.1821238 -0.9780103
vn -0.1248457 0.2266935 -0.9659315
vn 0 -0.2425334 -0.970143
vn 0 -0.2425334 -0.970143
vn 0 -0.2425334 -0.970143
vn 0 -0.2425334 -0.9701431
vn 0 1 0
vn 0 1 0
vn 0 1 0
vn -0.6949491 -0.02369204 0.7186686
vn -0.6949491 -0.02369204 0.7186686
vn -0.6949491 -0.02369204 0.7186686
vn -0.2843331 -0.5206618 0.8050256
vn -0.2843331 -0.5206618 0.8050256
vn -0.2843331 -0.5206618 0.8050256
vn -0.4718767 -0.8816645 0
vn -0.4718767 -0.8816645 0
vn -0.4718767 -0.8816645 0
vn 0.4797363 -0.8774127 0
vn 0.4677276 -0.8523723 -0.2338638
vn 0.4677276 -0.8523723 -0.2338638
vn 0.4344914 -0.7889451 -0.4344914
vn 0.4344915 -0.788945 -0.4344915
vn 0.4344884 -0.7889392 -0.434505
vn 0.4344884 -0.7889392 -0.434505
vn 0.4344854 -0.7889336 -0.4345186
vn 0 1 0
vn 0 1 0
vn 0 1 0
vn 0 1 0
vn 0 -0.06997731 0.9975486
vn 0 -0.06997731 0.9975486
vn 0 -0.06997731 0.9975486
vn 0 -0.06997729 0.9975486
vn 0.02235805 0.04114979 0.9989028
vn 0.02235805 0.04114978 0.9989029
vn 0.02235804 0.04114977 0.9989027
vn 0.02235806 0.04114982 0.9989028
vn 0.02235809 0.04114985 0.9989028
vn 0.02235806 0.0411498 0.9989028
vn -0.02681762 0.04869949 0.9984534
vn -0.02681761 0.04869946 0.9984534
vn -0.02681761 0.04869947 0.9984534
vn -0.02681761 0.04869946 0.9984534
vn -0.02681761 0.04869946 0.9984534
vn -0.02681762 0.04869948 0.9984533
vn 0 0.9999998 -0.0006985592
vn 0 0.9999998 -0.0006985592
vn 0 0.9999998 -0.0006985592
vn 0 0.9999998 -0.0006985592
vn -0.477412 -0.8786727 0.003472548
vn -0.4775076 -0.8786033 0.00652752
vn -0.4775076 -0.8786033 0.00652752
vn -0.4775987 -0.8785258 0.009583405
vn 0.482373 -0.8759657 -0.0005044061
vn 0.4823627 -0.8759717 -0.0001995301
vn 0.4823627 -0.8759717 -0.0001995301
vn 0.4823523 -0.8759773 0.0001053109
vn -0.4774134 -0.8786749 -0.002624438
vn -0.4775178 -0.8786221 0.0004243106
vn -0.4775178 -0.8786221 0.0004243106
vn -0.4776176 -0.8785608 0.003474141
vn 0.4823732 -0.8759659 0.0001053253
vn 0.4823625 -0.8759716 0.0004169203
vn 0.4823625 -0.8759716 0.0004169203
vn 0.4823518 -0.8759773 0.0007284794
vn 0 0 -1
vn 0 0 -1
vn 0 0 -1
vn 0 0 -1
vn 0 0 -1
vn 0 0 -1
vn 0 0 -1
vn 0 0 -1
vn 0 0 -1
vn 0 0 -1
vn 0 0 -0.9999999
vn 0 0 -1
vn 0 0 -1
vn 0 0 -1
vn 0.4790482 -0.8772182 0.03163794
vn 0.4699457 -0.8626186 0.1871906
vn 0.4699457 -0.8626186 0.1871906
vn 0.4507265 -0.8293368 0.3302214
vn -0.4233771 -0.8133292 0.3990582
vn -0.4484565 -0.8670719 0.2169636
vn -0.4484565 -0.8670719 0.2169636
vn -0.4570457 -0.889386 0.0100853
vn 0 0.9003453 -0.4351763
vn 0 0.9003453 -0.4351763
vn 0 0.9003453 -0.4351763
vn 0 0.9003453 -0.4351763
vn -0.4604102 -0.8263775 0.3242262
vn -0.4535545 -0.8128517 0.3654592
vn -0.4535545 -0.8128517 0.3654592
vn -0.4460323 -0.7981634 0.4049574
vn 0 -1 0
vn 0 -1 0
vn 0 -1 0
vn 0 -1 0

vt 41.45781 0.8348599
vt 6.657814 6.421672
vt 36.45781 6.421672
vt 0.05781174 0.8348599
vt 22.1 0
vt 0 1.502705
vt 21.9 1.502705
vt 0 0
vt 1.876371 26.06404
vt 1.84657 17.52854
vt -17.53488 17.5962
vt -17.50508 26.1317
vt -11.44375 34.64614
vt -17.47528 34.66719
vt 1.906172 34.59953
vt 15.19649 17.48194
vt 23.46408 21.72684
vt 21.65235 17.4594
vt 25.31816 23.85128
vt 21.90125 25.99413
vt 34.57622 25.9618
vt 19.53637 21.73757
vt 21.8938 23.86026
vt 23.86136 21.72545
vt 4.322889 0.6619973
vt -0.6592083 5.798991
vt 5.796651 5.776454
vt -0.6770804 0.6794519
vt -3.677189 4.488512
vt 10.39783 9.608191
vt 17.7228 4.540371
vt -3.683741 9.599144
vt 31.35337 -3.658013
vt -8.683388 -8.762962
vt -1.378089 -3.743798
vt 31.36648 -8.657997
vt -3.692829 26.07407
vt -3.707624 17.61421
vt -17.60741 17.81367
vt 28.47179 34.45371
vt -3.692829 26.07407
vt 15.12182 34.47701
vt -3.707624 17.61421
vt -3.692829 26.07407
vt 34.47386 17.54758
vt 34.48861 25.99538
vt -3.692829 26.07407
vt 28.47179 34.45371
vt 34.50335 34.44318
vt 34.57622 25.9618
vt 1.876371 26.06404
vt 15.25609 34.55293
vt 41.45781 0.7970779
vt 0.05781174 0.8348599
vt 41.45781 0.8348599
vt 0.05781174 0.7970779
vt 17.7228 4.50226
vt -3.677189 4.488512
vt 17.7228 4.540371
vt -3.677189 4.450399
vt 22.1 0
vt 0 0.02499962
vt 22.1 0.02499962
vt 0 0
vt -7.663357 31.28985
vt -7.63339 -8.76021
vt -7.688356 31.28979
vt -7.608391 -8.760145
vt 8.485649 3.942703
vt 8.327477 1.689863
vt 4.336792 4.232047
vt 4.120078 1.984465
vt 8.485649 3.942703
vt 4.336792 4.232047
vt 8.701648 6.189176
vt 12.63307 3.651142
vt 8.327477 1.689863
vt 8.485649 3.942703
vt 12.63307 3.651142
vt 16.5645 1.113108
vt 12.12428 -2.874465
vt 6.80164 -2.720169
vt 12.12428 -1.788562
vt 2.051688 -4.637443
vt 1.068878 1.1
vt 7.629395E-06 0
vt 7.629395E-06 0.02499962
vt 14.7 4.099998
vt 22.6 4
vt 14.7 0
vt 22.5 0
vt 7.200001 4.099998
vt 0 0
vt 14.6 8.15
vt 13.95813 5.929688
vt 21.97938 1.570312
vt 9.773125 3.779062
vt 5.820623 1.570312
vt 27.325 0
vt 0 0
vt 20.45 3.737501
vt 6.787498 3.737501
vt 13.575 7.475
vt 15.88865 28.41661
vt 15.97376 23.54066
vt 9.296124 23.41706
vt 0.7464008 28.16639
vt 7.827801 0.5494614
vt 1.035156 0.0308609
vt 8.535156 6.544903
vt 8.535156 6.544903
vt 1.035156 19.26299
vt 8.535156 51.73086
vt 1.035156 51.73086
vt 12.28516 11.14602
vt 15.83516 51.73086
vt 16.03516 14.52052
vt 12.28516 11.14602
vt 16.03516 12.92496
vt 12.28516 11.14602
vt 16.03516 14.52052
vt -9.751007 3.660411
vt -4.13493 6.916669
vt -9.412245 3.539422
vt -4.170021 6.577732
vt -7.68622 -0.820964
vt 0.7412075 -0.2343763
vt -7.487967 -1.098542
vt 0.378462 -0.5510025
vt 7.8 0
vt -9.536743E-07 0
vt 7.849999 0.2061539
vt 0.6999998 0.2061539
vt -1.659397 2.418586
vt 2.357163 2.135718
vt -1.467191 1.869843
vt 2.283193 1.605766
vt 0.7412075 -0.2343763
vt 9.168634 0.3522118
vt 0.378462 -0.5510025
vt 8.244884 -0.003463641
vt 14.7 0
vt 0 0
vt 13.95 0.2061539
vt 0.04999924 0.2061539
vt 7.150001 3.814697E-06
vt 9.536743E-07 3.814697E-06
vt 7.100001 0.05000305
vt 1.879596 1.895462
vt 1.926742 1.844691
vt -1.87372 1.906329
vt 6.647549 1.907349E-06
vt 0 4.509449
vt 6.711346 0.05856705
vt 0 4.509449
vt 0.01665115 4.533997
vt 6.711346 0.05856705
vt 7.921018 3.814697E-06
vt 0 3.814697E-06
vt 7.921018 0.05000305
vt 0.04387093 0.05000305
vt 7.877184 0
vt 0 0
vt 7.920982 0.05551147
vt 0.04380035 0.05551147
vt 13.95 3.814697E-06
vt 0.04999924 3.814697E-06
vt 13.9 0.05000305
vt 0 0.05000305
vt 29.75777 1.259518
vt 0.06435204 -1.258648
vt 28.43332 1.411497
vt 1.201131 -0.8979439
vt 3.8887 2.055587
vt 12.41563 2.439143
vt 3.340714 1.637026
vt 11.16086 1.98879
vt -4.638229 1.672029
vt -4.479435 1.285263
vt -4.496321 2.064463
vt 3.951172 2.138672
vt -3.347812 1.743057
vt 4.399486 1.811115
vt 12.39866 2.212881
vt 12.14678 1.879174
vt 0.01285458 -0.4608058
vt 27.30044 1.060233
vt 0.03517628 -0.7600308
vt 27.31783 0.7607331
vt 3.916017 0.3003922
vt 10.79436 0.3003922
vt 3.913723 0.0003890991
vt 10.78872 0.0003890991
vt 0.0007076263 0.3000031
vt 7.748302 0.3000031
vt 0 0
vt 7.748486 0
vt -2.962324 0.3003922
vt 3.916017 0.3003922
vt -2.961277 0.0003890991
vt 3.913723 0.0003890991
vt 0 0.3000031
vt 7.747597 0.3000031
vt 0.0001811981 0
vt 7.748672 0
vt 0.00233078 8
vt 14.60233 0
vt -1.907349E-06 7.697668
vt 13.818 0.1516671
vt 0 0.02633286
vt 7.5 4.026333
vt 0.343668 -4.768372E-07
vt 7.497667 3.724001
vt 29.4 0
vt 0 0
vt 28.61567 0.1516671
vt 0.7836666 0.1516671
vt 7.299999 4
vt 7.643667 3.973667
vt 15.74418 0
vt 0 0
vt 15.74325 0.1000485
vt 0.03691864 0.1010532
vt 8.068375 0
vt 0.003147125 0
vt 8.094949 0.1090584
vt 0 0.09208679
vt 27.832 0
vt -9.536743E-07 0
vt 27.81633 0.1110668
vt 0.01633167 0.1110668
vt 7.852852 0
vt 0 0
vt 7.81506 0.1057091
vt 0.02532959 0.1089458
vt 0 0.09999847
vt 29.4 0
vt 0 0
vt 29.4 0.09999847

g Hungarian Roof
usemtl Hungarian Roof
usemap Hungarian Roof
f 2/2/2 1/1/1 3/3/3
f 4/4/4 1/1/1 2/2/2
f 6/6/6 5/5/5 7/7/7
f 8/8/8 5/5/5 6/6/6
f 10/10/10 9/9/9 11/11/11
f 9/9/9 12/12/12 11/11/11
f 12/12/12 9/9/9 13/13/13
f 14/14/14 12/12/12 13/13/13
f 9/9/9 15/15/15 13/13/13
f 17/17/17 16/16/16 18/18/18
f 20/20/20 19/19/19 21/21/21
f 23/23/23 22/22/22 24/24/24
f 26/26/26 25/25/25 27/27/27
f 28/28/28 25/25/25 26/26/26
f 30/30/30 29/29/29 31/31/31
f 32/32/32 29/29/29 30/30/30
f 34/34/34 33/33/33 35/35/35
f 36/36/36 33/33/33 34/34/34
f 38/38/38 37/37/37 39/39/39
f 41/41/41 40/40/40 42/42/42
f 44/44/44 43/43/43 45/45/45
f 46/46/46 44/44/44 45/45/45
f 47/47/47 46/46/46 48/48/48
f 48/48/48 46/46/46 49/49/49
f 51/51/51 50/50/50 52/52/52
f 54/54/54 53/53/53 55/55/55
f 56/56/56 53/53/53 54/54/54
f 58/58/58 57/57/57 59/59/59
f 60/60/60 57/57/57 58/58/58
f 62/62/62 61/61/61 63/63/63
f 64/64/64 61/61/61 62/62/62
f 66/66/66 65/65/65 67/67/67
f 68/68/68 65/65/65 66/66/66

g castle wall 3
usemtl castle wall 3
usemap castle wall 3
f 70/70/70 69/69/69 71/71/71
f 70/70/70 71/71/71 72/72/72
f 74/74/74 73/73/73 75/75/75
f 73/73/73 76/76/76 75/75/75
f 78/78/78 77/77/77 79/79/79
f 79/79/79 77/77/77 80/80/80
f 82/82/82 81/81/81 83/83/83
f 84/84/84 81/81/81 82/82/82
f 86/86/86 85/85/85 87/87/87

g castle wall 2
usemtl castle wall 2
usemap castle wall 2
f 89/89/89 88/88/88 90/90/90
f 89/89/89 90/90/90 91/91/91
f 90/90/90 88/88/88 92/92/92
f 90/90/90 92/92/92 93/93/93
f 88/88/88 89/89/89 94/94/94
f 92/92/92 88/88/88 94/94/94
f 96/96/96 95/95/95 97/97/97
f 98/98/98 96/96/96 97/97/97
f 100/100/100 99/99/99 101/101/101
f 100/100/100 101/101/101 102/102/102
f 101/101/101 103/103/103 102/102/102

g wood_planks_old_beat_1
usemtl wood_planks_old_beat_1
usemap wood_planks_old_beat_1
f 105/105/105 104/104/104 106/106/106
f 104/104/104 107/107/107 106/106/106
f 109/109/109 108/108/108 110/110/110
f 112/112/112 111/111/111 113/113/113
f 112/112/112 113/113/113 114/114/114
f 113/113/113 111/111/111 115/115/115
f 116/116/116 113/113/113 115/115/115
f 117/117/117 116/116/116 115/115/115
f 118/118/118 110/110/110 108/108/108
f 120/120/120 119/119/119 121/121/121

g wood_american_cherry
usemtl wood_american_cherry
usemap wood_american_cherry
f 123/123/123 122/122/122 124/124/124
f 125/125/125 123/123/123 124/124/124
f 127/127/127 126/126/126 128/128/128
f 129/129/129 127/127/127 128/128/128
f 131/131/131 130/130/130 132/132/132
f 133/133/133 131/131/131 132/132/132
f 135/135/135 134/134/134 136/136/136
f 137/137/137 135/135/135 136/136/136
f 139/139/139 138/138/138 140/140/140
f 141/141/141 139/139/139 140/140/140
f 143/143/143 142/142/142 144/144/144
f 145/145/145 143/143/143 144/144/144
f 147/147/147 146/146/146 148/148/148
f 150/150/150 149/149/149 151/151/151
f 153/153/153 152/152/152 154/154/154
f 156/156/156 155/155/155 157/157/157
f 159/159/159 158/158/158 160/160/160
f 161/161/161 159/159/159 160/160/160
f 163/163/163 162/162/162 164/164/164
f 165/165/165 163/163/163 164/164/164
f 167/167/167 166/166/166 168/168/168
f 169/169/169 167/167/167 168/168/168
f 171/171/171 170/170/170 172/172/172
f 173/173/173 171/171/171 172/172/172
f 175/175/175 174/174/174 176/176/176
f 177/177/177 175/175/175 176/176/176
f 174/174/174 178/178/178 179/179/179
f 176/176/176 174/174/174 179/179/179
f 181/181/181 180/180/180 182/182/182
f 183/183/183 181/181/181 182/182/182
f 184/184/184 181/181/181 183/183/183
f 185/185/185 184/184/184 183/183/183
f 187/187/187 186/186/186 188/188/188
f 189/189/189 187/187/187 188/188/188
f 191/191/191 190/190/190 192/192/192
f 193/193/193 191/191/191 192/192/192
f 195/195/195 194/194/194 196/196/196
f 197/197/197 195/195/195 196/196/196
f 199/199/199 198/198/198 200/200/200
f 201/201/201 199/199/199 200/200/200
f 203/203/203 202/202/202 204/204/204
f 205/205/205 203/203/203 204/204/204
f 207/207/207 206/206/206 208/208/208
f 209/209/209 207/207/207 208/208/208
f 211/211/211 210/210/210 212/212/212
f 213/213/213 211/211/211 212/212/212
f 215/215/215 214/214/214 216/216/216
f 217/217/217 215/215/215 216/216/216
f 218/218/218 215/215/215 217/217/217
f 219/219/219 218/218/218 217/217/217
f 221/221/221 220/220/220 222/222/222
f 223/223/223 221/221/221 222/222/222
f 225/225/225 224/224/224 226/226/226
f 227/227/227 225/225/225 226/226/226
f 229/229/229 228/228/228 230/230/230
f 231/231/231 229/229/229 230/230/230
f 233/233/233 232/232/232 234/234/234
f 235/235/235 233/233/233 234/234/234
f 237/237/237 236/236/236 238/238/238
f 239/239/239 236/236/236 237/237/237
